<svg xmlns="http://www.w3.org/2000/svg" viewBox="0 0 512 220">
  <defs>
    <linearGradient id="woodGradient" x1="0" y1="0" x2="0" y2="1">
      <stop offset="0%" stop-color="#c76f28" />
      <stop offset="50%" stop-color="#9f4e16" />
      <stop offset="100%" stop-color="#6f3411" />
    </linearGradient>
    <linearGradient id="leafGradient" x1="0" y1="0" x2="1" y2="1">
      <stop offset="0%" stop-color="#4caf50" />
      <stop offset="100%" stop-color="#1b8f3d" />
    </linearGradient>
    <filter id="shadow" x="-15%" y="-15%" width="130%" height="130%">
      <feDropShadow dx="0" dy="4" stdDeviation="6" flood-color="#000" flood-opacity="0.35" />
    </filter>
  </defs>

  <rect width="100%" height="100%" rx="28" ry="28" fill="#1a422c" />

  <g filter="url(#shadow)">
    <path d="M52 70h408c18 0 28 10 28 24v36c0 14-10 24-28 24H52c-18 0-28-10-28-24V94c0-14 10-24 28-24z" fill="url(#woodGradient)" stroke="#4b230b" stroke-width="6" />
    <path d="M52 76h408c14 0 22 8 22 18v30c0 10-8 18-22 18H52c-14 0-22-8-22-18V94c0-10 8-18 22-18z" fill="rgba(255,255,255,0.08)" />
  </g>

  <g fill="url(#leafGradient)">
    <ellipse cx="60" cy="54" rx="18" ry="28" transform="rotate(-20 60 54)" />
    <ellipse cx="100" cy="44" rx="16" ry="26" transform="rotate(18 100 44)" />
    <ellipse cx="452" cy="54" rx="18" ry="28" transform="rotate(20 452 54)" />
    <ellipse cx="412" cy="44" rx="16" ry="26" transform="rotate(-18 412 44)" />
    <ellipse cx="74" cy="166" rx="16" ry="26" transform="rotate(20 74 166)" />
    <ellipse cx="438" cy="166" rx="16" ry="26" transform="rotate(-20 438 166)" />
  </g>

  <g fill="#2c5f2d">
    <path d="M70 64c10 16 20 26 34 34-12 2-24-2-36-16z" />
    <path d="M442 64c-10 16-20 26-34 34 12 2 24-2 36-16z" />
    <path d="M82 158c10-16 20-26 34-34-12-2-24 2-36 16z" />
    <path d="M430 158c-10-16-20-26-34-34 12-2 24 2 36 16z" />
  </g>

  <text x="50%" y="122" text-anchor="middle" font-size="88" font-weight="900" font-family="'Baloo 2', 'Fredoka One', 'Nunito', 'Comic Sans MS', cursive" fill="#fff" stroke="#f7931e" stroke-width="10" paint-order="stroke">
    TABATINGA
  </text>
  <text x="50%" y="122" text-anchor="middle" font-size="88" font-weight="900" font-family="'Baloo 2', 'Fredoka One', 'Nunito', 'Comic Sans MS', cursive" fill="#fff">
    TABATINGA
  </text>

  <text x="50%" y="172" text-anchor="middle" font-size="24" font-weight="600" font-family="'Poppins', 'Montserrat', sans-serif" fill="#f4e3c1" letter-spacing="4">
    FAMILY FUN CENTRE
  </text>
</svg>
