<svg width="512" height="384" viewBox="0 0 512 384" xmlns="http://www.w3.org/2000/svg" role="img" aria-labelledby="title desc">
  <title id="title">Under Construction</title>
  <desc id="desc">Illustration of an under construction sign with traffic cones</desc>
  <defs>
    <linearGradient id="bg" x1="0%" y1="0%" x2="0%" y2="100%">
      <stop offset="0%" stop-color="#1f2933" />
      <stop offset="100%" stop-color="#111827" />
    </linearGradient>
    <linearGradient id="cone" x1="0%" y1="0%" x2="0%" y2="100%">
      <stop offset="0%" stop-color="#f97316" />
      <stop offset="100%" stop-color="#ea580c" />
    </linearGradient>
  </defs>
  <rect width="512" height="384" fill="url(#bg)" rx="28" />
  <g fill="#1f2933" opacity="0.15">
    <circle cx="40" cy="50" r="16" />
    <circle cx="470" cy="120" r="22" />
    <circle cx="420" cy="320" r="18" />
    <circle cx="120" cy="320" r="26" />
    <circle cx="256" cy="48" r="20" />
  </g>
  <g transform="translate(80 90)">
    <rect x="0" y="48" width="352" height="160" rx="32" fill="#111827" stroke="#374151" stroke-width="4" />
    <rect x="24" y="72" width="304" height="112" rx="24" fill="#fbbf24" />
    <g fill="#111827">
      <rect x="44" y="94" width="38" height="68" rx="8" />
      <rect x="116" y="94" width="38" height="68" rx="8" />
      <rect x="188" y="94" width="38" height="68" rx="8" />
      <rect x="260" y="94" width="38" height="68" rx="8" />
    </g>
    <circle cx="176" cy="20" r="20" fill="#ef4444" />
    <path d="M176 12 v-24" stroke="#ef4444" stroke-width="6" stroke-linecap="round" />
  </g>
  <g transform="translate(120 250)">
    <path d="M36 0 L64 0 L90 90 H10 Z" fill="url(#cone)" />
    <path d="M18 90 H82" stroke="#fcd34d" stroke-width="10" stroke-linecap="round" />
    <rect x="36" width="28" height="90" fill="white" opacity="0.15" />
  </g>
  <g transform="translate(300 250)">
    <path d="M36 0 L64 0 L90 90 H10 Z" fill="url(#cone)" />
    <path d="M18 90 H82" stroke="#fcd34d" stroke-width="10" stroke-linecap="round" />
    <rect x="36" width="28" height="90" fill="white" opacity="0.15" />
  </g>
  <text x="256" y="80" font-family="'Poppins', 'Helvetica', sans-serif" font-weight="600" font-size="32" text-anchor="middle" fill="#f3f4f6">UNDER CONSTRUCTION</text>
</svg>
